<mxfile host="app.diagrams.net" modified="2023-04-09T13:27:10.393Z" agent="Mozilla/5.0 (Windows NT 10.0; Win64; x64) AppleWebKit/537.36 (KHTML, like Gecko) Chrome/111.0.0.0 Safari/537.36" etag="AhKj3bY_uIVbrwN83Rdm" version="21.1.5" type="github">
  <diagram name="Page-1" id="99OfRAQ0GJMzSH3k251o">
    <mxGraphModel dx="1434" dy="764" grid="1" gridSize="10" guides="1" tooltips="1" connect="1" arrows="1" fold="1" page="1" pageScale="1" pageWidth="827" pageHeight="1169" math="0" shadow="0">
      <root>
        <mxCell id="0" />
        <mxCell id="1" parent="0" />
        <mxCell id="VFlyCZNKHdsgNmoeDQPd-11" style="edgeStyle=orthogonalEdgeStyle;rounded=0;orthogonalLoop=1;jettySize=auto;html=1;exitX=0.5;exitY=1;exitDx=0;exitDy=0;entryX=0.5;entryY=0;entryDx=0;entryDy=0;fontFamily=Helvetica;fontSize=12;fontColor=default;" edge="1" parent="1" source="VFlyCZNKHdsgNmoeDQPd-1" target="VFlyCZNKHdsgNmoeDQPd-3">
          <mxGeometry relative="1" as="geometry" />
        </mxCell>
        <mxCell id="VFlyCZNKHdsgNmoeDQPd-13" style="edgeStyle=orthogonalEdgeStyle;rounded=0;orthogonalLoop=1;jettySize=auto;html=1;exitX=0.5;exitY=1;exitDx=0;exitDy=0;fontFamily=Helvetica;fontSize=12;fontColor=default;" edge="1" parent="1" source="VFlyCZNKHdsgNmoeDQPd-1" target="VFlyCZNKHdsgNmoeDQPd-2">
          <mxGeometry relative="1" as="geometry" />
        </mxCell>
        <mxCell id="VFlyCZNKHdsgNmoeDQPd-1" value="BooksApp" style="rounded=0;whiteSpace=wrap;html=1;" vertex="1" parent="1">
          <mxGeometry x="240" y="50" width="200" height="50" as="geometry" />
        </mxCell>
        <mxCell id="VFlyCZNKHdsgNmoeDQPd-2" value="BookCreate" style="rounded=0;whiteSpace=wrap;html=1;fillColor=#d5e8d4;strokeColor=#82b366;" vertex="1" parent="1">
          <mxGeometry x="130" y="180" width="150" height="60" as="geometry" />
        </mxCell>
        <mxCell id="VFlyCZNKHdsgNmoeDQPd-14" style="edgeStyle=orthogonalEdgeStyle;rounded=0;orthogonalLoop=1;jettySize=auto;html=1;fontFamily=Helvetica;fontSize=12;fontColor=default;" edge="1" parent="1" source="VFlyCZNKHdsgNmoeDQPd-3" target="VFlyCZNKHdsgNmoeDQPd-5">
          <mxGeometry relative="1" as="geometry" />
        </mxCell>
        <mxCell id="VFlyCZNKHdsgNmoeDQPd-17" style="edgeStyle=orthogonalEdgeStyle;rounded=0;orthogonalLoop=1;jettySize=auto;html=1;exitX=0.5;exitY=1;exitDx=0;exitDy=0;fontFamily=Helvetica;fontSize=12;fontColor=default;" edge="1" parent="1" source="VFlyCZNKHdsgNmoeDQPd-3" target="VFlyCZNKHdsgNmoeDQPd-4">
          <mxGeometry relative="1" as="geometry" />
        </mxCell>
        <mxCell id="VFlyCZNKHdsgNmoeDQPd-21" style="edgeStyle=orthogonalEdgeStyle;rounded=0;orthogonalLoop=1;jettySize=auto;html=1;entryX=0.5;entryY=0;entryDx=0;entryDy=0;fontFamily=Helvetica;fontSize=12;fontColor=default;exitX=0.5;exitY=1;exitDx=0;exitDy=0;" edge="1" parent="1" source="VFlyCZNKHdsgNmoeDQPd-3" target="VFlyCZNKHdsgNmoeDQPd-6">
          <mxGeometry relative="1" as="geometry">
            <mxPoint x="470" y="240" as="sourcePoint" />
            <Array as="points">
              <mxPoint x="475" y="290" />
              <mxPoint x="655" y="290" />
            </Array>
          </mxGeometry>
        </mxCell>
        <mxCell id="VFlyCZNKHdsgNmoeDQPd-3" value="BookList" style="rounded=0;whiteSpace=wrap;html=1;fillColor=#dae8fc;strokeColor=#6c8ebf;" vertex="1" parent="1">
          <mxGeometry x="400" y="180" width="150" height="60" as="geometry" />
        </mxCell>
        <mxCell id="VFlyCZNKHdsgNmoeDQPd-22" value="" style="edgeStyle=orthogonalEdgeStyle;rounded=0;orthogonalLoop=1;jettySize=auto;html=1;fontFamily=Helvetica;fontSize=12;fontColor=default;" edge="1" parent="1" source="VFlyCZNKHdsgNmoeDQPd-4" target="VFlyCZNKHdsgNmoeDQPd-7">
          <mxGeometry relative="1" as="geometry" />
        </mxCell>
        <mxCell id="VFlyCZNKHdsgNmoeDQPd-4" value="BookShow" style="rounded=0;whiteSpace=wrap;html=1;fillColor=#e1d5e7;strokeColor=#9673a6;" vertex="1" parent="1">
          <mxGeometry x="220" y="340" width="150" height="60" as="geometry" />
        </mxCell>
        <mxCell id="VFlyCZNKHdsgNmoeDQPd-23" value="" style="edgeStyle=orthogonalEdgeStyle;rounded=0;orthogonalLoop=1;jettySize=auto;html=1;fontFamily=Helvetica;fontSize=12;fontColor=default;" edge="1" parent="1" source="VFlyCZNKHdsgNmoeDQPd-5" target="VFlyCZNKHdsgNmoeDQPd-8">
          <mxGeometry relative="1" as="geometry" />
        </mxCell>
        <mxCell id="VFlyCZNKHdsgNmoeDQPd-5" value="BookShow" style="rounded=0;whiteSpace=wrap;html=1;fillColor=#e1d5e7;strokeColor=#9673a6;" vertex="1" parent="1">
          <mxGeometry x="400" y="340" width="150" height="60" as="geometry" />
        </mxCell>
        <mxCell id="VFlyCZNKHdsgNmoeDQPd-24" value="" style="edgeStyle=orthogonalEdgeStyle;rounded=0;orthogonalLoop=1;jettySize=auto;html=1;fontFamily=Helvetica;fontSize=12;fontColor=default;" edge="1" parent="1" source="VFlyCZNKHdsgNmoeDQPd-6" target="VFlyCZNKHdsgNmoeDQPd-9">
          <mxGeometry relative="1" as="geometry" />
        </mxCell>
        <mxCell id="VFlyCZNKHdsgNmoeDQPd-6" value="BookShow" style="rounded=0;whiteSpace=wrap;html=1;fillColor=#e1d5e7;strokeColor=#9673a6;" vertex="1" parent="1">
          <mxGeometry x="580" y="340" width="150" height="60" as="geometry" />
        </mxCell>
        <mxCell id="VFlyCZNKHdsgNmoeDQPd-7" value="BookEdit" style="rounded=0;whiteSpace=wrap;html=1;fillColor=#ffe6cc;strokeColor=#d79b00;" vertex="1" parent="1">
          <mxGeometry x="220" y="460" width="150" height="60" as="geometry" />
        </mxCell>
        <mxCell id="VFlyCZNKHdsgNmoeDQPd-8" value="BookEdit" style="rounded=0;whiteSpace=wrap;html=1;fillColor=#ffe6cc;strokeColor=#d79b00;" vertex="1" parent="1">
          <mxGeometry x="400" y="460" width="150" height="60" as="geometry" />
        </mxCell>
        <mxCell id="VFlyCZNKHdsgNmoeDQPd-9" value="BookEdit" style="rounded=0;whiteSpace=wrap;html=1;fillColor=#ffe6cc;strokeColor=#d79b00;" vertex="1" parent="1">
          <mxGeometry x="580" y="460" width="150" height="60" as="geometry" />
        </mxCell>
      </root>
    </mxGraphModel>
  </diagram>
</mxfile>
